<?xml version="1.0" encoding="utf-8"?>
<!-- Generator: Adobe Illustrator 24.2.1, SVG Export Plug-In . SVG Version: 6.00 Build 0)  -->
<svg version="1.1" id="Layer_1" xmlns="http://www.w3.org/2000/svg" xmlns:xlink="http://www.w3.org/1999/xlink" x="0px" y="0px"
	 viewBox="0 0 235 50" style="enable-background:new 0 0 235 50;" xml:space="preserve">
<style type="text/css">
	.st0{fill-rule:evenodd;clip-rule:evenodd;fill:#FFC337;stroke:#FFFFFF;stroke-width:1.9404;stroke-miterlimit:10;}
	.st1{fill-rule:evenodd;clip-rule:evenodd;fill:#231F20;stroke:#231F20;stroke-width:0.4262;stroke-miterlimit:10;}
	.st2{fill-rule:evenodd;clip-rule:evenodd;fill:#231F20;stroke:#231F20;stroke-width:0.2131;stroke-miterlimit:10;}
	.st3{enable-background:new    ;}
	.st4{fill:#FFFFFF;}
</style>
<circle class="st0" cx="26.2" cy="25" r="23.6"/>
<g>
	<path class="st1" d="M23.5,39.2c0,0.2-0.2,0.4-0.5,0.4c-0.2,0-0.5-0.2-0.5-0.4s0.2-0.5,0.5-0.5S23.5,39,23.5,39.2L23.5,39.2z"/>
	<path class="st1" d="M25,39.1c0,0.3-0.2,0.5-0.5,0.5S24,39.4,24,39.1c0-0.2,0.2-0.5,0.5-0.5C24.8,38.7,25,38.9,25,39.1L25,39.1z"/>
	<path class="st1" d="M26.6,39.1c0,0.3-0.2,0.5-0.5,0.5s-0.5-0.2-0.5-0.5s0.2-0.5,0.5-0.5S26.6,38.8,26.6,39.1L26.6,39.1z"/>
	<path class="st1" d="M28.1,39c0,0.2-0.2,0.5-0.5,0.5s-0.5-0.2-0.5-0.5c0-0.2,0.2-0.5,0.5-0.5S28.1,38.7,28.1,39L28.1,39z"/>
	<path class="st1" d="M29.6,38.9c0,0.3-0.2,0.5-0.5,0.5s-0.5-0.2-0.5-0.5c0-0.2,0.2-0.5,0.5-0.5S29.6,38.6,29.6,38.9L29.6,38.9z"/>
	<path class="st2" d="M30.7,36.1c0,0.6-0.5,1-1,1c-0.6,0-1-0.5-1-1s0.5-1,1-1C30.3,35.1,30.7,35.6,30.7,36.1L30.7,36.1z"/>
	<path class="st2" d="M31.4,33.5c0,0.6-0.5,1-1,1c-0.6,0-1-0.4-1-1s0.5-1,1-1S31.4,32.9,31.4,33.5L31.4,33.5z"/>
	<path class="st2" d="M32.6,31.1c0,0.6-0.5,1-1,1c-0.6,0-1-0.4-1-1s0.5-1,1-1C32.2,30.1,32.6,30.5,32.6,31.1L32.6,31.1z"/>
	<path class="st2" d="M34.4,28.7c0,0.6-0.5,1-1,1c-0.6,0-1-0.5-1-1s0.5-1,1-1S34.4,28.2,34.4,28.7L34.4,28.7z"/>
	<path class="st2" d="M35.6,26.2c0,0.6-0.5,1-1,1c-0.6,0-1-0.4-1-1s0.5-1,1-1C35.2,25.2,35.6,25.6,35.6,26.2L35.6,26.2z"/>
	<path class="st2" d="M36.5,23.3c0,0.6-0.5,1-1,1s-1-0.5-1-1c0-0.6,0.5-1,1-1S36.5,22.8,36.5,23.3L36.5,23.3z"/>
	<path class="st2" d="M36.2,20.5c0,0.6-0.5,1-1,1c-0.6,0-1-0.4-1-1s0.4-1,1-1S36.2,19.9,36.2,20.5L36.2,20.5z"/>
	<path class="st2" d="M35.4,18c0,0.6-0.5,1-1,1c-0.6,0-1-0.4-1-1s0.5-1,1-1S35.4,17.4,35.4,18L35.4,18z"/>
	<path class="st2" d="M34,15.9c0,0.6-0.5,1-1,1c-0.6,0-1-0.5-1-1c0-0.6,0.5-1,1-1S34,15.3,34,15.9L34,15.9z"/>
	<path class="st2" d="M32,14.2c0,0.6-0.5,1-1,1c-0.6,0-1-0.5-1-1c0-0.6,0.5-1,1-1S32,13.7,32,14.2L32,14.2z"/>
	<path class="st2" d="M29.6,13.1c0,0.6-0.5,1-1,1c-0.6,0-1-0.5-1-1c0-0.6,0.5-1,1-1S29.6,12.5,29.6,13.1L29.6,13.1z"/>
	<path class="st2" d="M27.1,12.8c0,0.6-0.5,1-1,1c-0.6,0-1-0.4-1-1s0.5-1,1-1S27.1,12.3,27.1,12.8L27.1,12.8z"/>
	<path class="st2" d="M24.6,13.2c0,0.6-0.5,1-1,1c-0.6,0-1-0.4-1-1s0.5-1,1-1S24.6,12.6,24.6,13.2L24.6,13.2z"/>
	<path class="st2" d="M22.2,14.3c0,0.6-0.5,1-1,1s-1-0.5-1-1c0-0.6,0.5-1,1-1S22.2,13.8,22.2,14.3L22.2,14.3z"/>
	<path class="st2" d="M20.2,16c0,0.6-0.5,1-1,1c-0.6,0-1-0.5-1-1c0-0.6,0.4-1,1-1C19.7,15,20.2,15.4,20.2,16L20.2,16z"/>
	<path class="st2" d="M18.8,18.1c0,0.6-0.5,1-1,1c-0.6,0-1-0.5-1-1c0-0.6,0.4-1,1-1C18.3,17.1,18.8,17.5,18.8,18.1L18.8,18.1z"/>
	<path class="st2" d="M17.9,20.6c0,0.6-0.4,1-1,1s-1-0.5-1-1c0-0.6,0.5-1,1-1C17.5,19.6,17.9,20.1,17.9,20.6L17.9,20.6z"/>
	<path class="st2" d="M17.8,23.5c0,0.6-0.5,1-1,1c-0.6,0-1-0.5-1-1c0-0.6,0.5-1,1-1S17.8,22.9,17.8,23.5L17.8,23.5z"/>
	<path class="st2" d="M18.7,26.1c0,0.6-0.5,1-1,1c-0.6,0-1-0.4-1-1s0.5-1,1-1S18.7,25.6,18.7,26.1L18.7,26.1z"/>
	<path class="st2" d="M19.9,28.7c0,0.6-0.5,1-1,1s-1-0.5-1-1c0-0.6,0.5-1,1-1S19.9,28.1,19.9,28.7L19.9,28.7z"/>
	<path class="st2" d="M21.7,31c0,0.6-0.5,1-1,1c-0.6,0-1-0.5-1-1c0-0.6,0.5-1,1-1S21.7,30.5,21.7,31L21.7,31z"/>
	<path class="st2" d="M22.9,33.4c0,0.6-0.5,1-1,1c-0.6,0-1-0.5-1-1c0-0.6,0.5-1,1-1C22.5,32.4,22.9,32.9,22.9,33.4L22.9,33.4z"/>
	<path class="st2" d="M23.6,36.1c0,0.6-0.5,1-1,1c-0.6,0-1-0.5-1-1s0.5-1,1-1S23.6,35.5,23.6,36.1L23.6,36.1z"/>
	<g>
		<path class="st1" d="M37.8,30.9c0,0.2-0.2,0.5-0.5,0.5s-0.5-0.2-0.5-0.5s0.2-0.5,0.5-0.5C37.6,30.5,37.8,30.7,37.8,30.9L37.8,30.9
			z"/>
		<path class="st1" d="M39.1,31.7c0,0.3-0.2,0.5-0.5,0.5c-0.2,0-0.5-0.2-0.5-0.5c0-0.2,0.2-0.5,0.5-0.5
			C38.9,31.2,39.1,31.4,39.1,31.7L39.1,31.7z"/>
		<path class="st1" d="M40.4,32.4c0,0.3-0.2,0.5-0.5,0.5c-0.2,0-0.5-0.2-0.5-0.5s0.2-0.5,0.5-0.5C40.2,32,40.4,32.2,40.4,32.4
			L40.4,32.4z"/>
		<path class="st1" d="M39.9,26.6c0.1,0.2,0,0.5-0.3,0.6c-0.2,0.1-0.5,0-0.6-0.3c-0.1-0.2,0-0.5,0.3-0.6
			C39.6,26.3,39.8,26.4,39.9,26.6L39.9,26.6z"/>
		<path class="st1" d="M41.4,26.9c0.1,0.2,0,0.5-0.3,0.6c-0.2,0.1-0.5,0-0.6-0.3c-0.1-0.2,0-0.5,0.3-0.6
			C41.1,26.5,41.3,26.6,41.4,26.9L41.4,26.9z"/>
		<path class="st1" d="M40.4,20.7c0.1,0.2,0,0.5-0.3,0.6c-0.2,0.1-0.5,0-0.6-0.3c-0.1-0.2,0-0.5,0.3-0.6
			C40.1,20.4,40.4,20.5,40.4,20.7L40.4,20.7z"/>
		<path class="st1" d="M41.9,20.5c0.1,0.2,0,0.5-0.3,0.6c-0.2,0.1-0.5,0-0.6-0.3c-0.1-0.2,0-0.5,0.3-0.6
			C41.6,20.1,41.8,20.2,41.9,20.5L41.9,20.5z"/>
		<path class="st1" d="M43.4,20.2c0.1,0.2,0,0.5-0.3,0.6c-0.2,0.1-0.5,0-0.6-0.3c-0.1-0.2,0-0.5,0.3-0.6C43,19.8,43.3,20,43.4,20.2
			L43.4,20.2z"/>
		<path class="st1" d="M38.9,15.4c0.1,0.2,0,0.5-0.3,0.6c-0.2,0.1-0.5,0-0.6-0.3c-0.1-0.2,0-0.5,0.3-0.6
			C38.6,15,38.8,15.1,38.9,15.4L38.9,15.4z"/>
		<path class="st1" d="M40.2,14.6c0.1,0.2,0,0.5-0.3,0.6c-0.2,0.1-0.5,0-0.6-0.3c-0.1-0.2,0-0.5,0.3-0.6
			C39.9,14.3,40.2,14.4,40.2,14.6L40.2,14.6z"/>
		<path class="st1" d="M41.5,13.9c0.1,0.2,0,0.5-0.3,0.6c-0.2,0.1-0.5,0-0.6-0.3c-0.1-0.2,0-0.5,0.3-0.6
			C41.2,13.5,41.4,13.6,41.5,13.9L41.5,13.9z"/>
		<path class="st1" d="M35.9,11.3c0.1,0.2,0,0.5-0.3,0.6c-0.2,0.1-0.5,0-0.6-0.3c-0.1-0.2,0-0.5,0.3-0.6
			C35.6,10.9,35.8,11.1,35.9,11.3L35.9,11.3z"/>
		<path class="st1" d="M36.9,10.2c0.1,0.2,0,0.5-0.3,0.6c-0.2,0.1-0.5,0-0.6-0.3c-0.1-0.2,0-0.5,0.3-0.6C36.6,9.8,36.8,10,36.9,10.2
			L36.9,10.2z"/>
		<path class="st1" d="M37.9,9c0.1,0.2,0,0.5-0.3,0.6c-0.2,0.1-0.5,0-0.6-0.3c-0.1-0.2,0-0.5,0.3-0.6C37.5,8.7,37.8,8.8,37.9,9
			L37.9,9z"/>
		<path class="st1" d="M31.5,8.5c0.1,0.2,0,0.5-0.3,0.6c-0.2,0.1-0.5,0-0.6-0.3c-0.1-0.2,0-0.5,0.3-0.6C31.2,8.2,31.4,8.3,31.5,8.5
			L31.5,8.5z"/>
		<path class="st1" d="M32.1,7.1c0.1,0.2,0,0.5-0.3,0.6c-0.2,0.1-0.5,0-0.6-0.3c-0.1-0.2,0-0.5,0.3-0.6C31.7,6.7,32,6.9,32.1,7.1
			L32.1,7.1z"/>
		<path class="st1" d="M32.6,5.7c0.1,0.2,0,0.5-0.3,0.6c-0.2,0.1-0.5,0-0.6-0.3c-0.1-0.2,0-0.5,0.3-0.6C32.2,5.4,32.5,5.5,32.6,5.7
			L32.6,5.7z"/>
		<path class="st1" d="M26.2,7.9c0.1,0.2,0,0.5-0.3,0.6c-0.2,0.1-0.5,0-0.6-0.3c-0.1-0.2,0-0.5,0.3-0.6C25.9,7.6,26.2,7.7,26.2,7.9
			L26.2,7.9z"/>
		<path class="st1" d="M26.2,6.4c0.1,0.2,0,0.5-0.3,0.6c-0.2,0.1-0.5,0-0.6-0.3c-0.1-0.2,0-0.5,0.3-0.6C25.9,6.1,26.2,6.2,26.2,6.4
			L26.2,6.4z"/>
		<path class="st1" d="M26.2,5c0.1,0.2,0,0.5-0.3,0.6c-0.2,0.1-0.5,0-0.6-0.3c-0.1-0.2,0-0.5,0.3-0.6S26.2,4.8,26.2,5L26.2,5z"/>
		<path class="st1" d="M20.6,6.1c0.1,0.2,0,0.5-0.3,0.6c-0.2,0.1-0.5,0-0.6-0.3c-0.1-0.2,0-0.5,0.3-0.6S20.6,5.8,20.6,6.1L20.6,6.1z
			"/>
		<path class="st1" d="M21.2,7.5c0.1,0.2,0,0.5-0.3,0.6c-0.2,0.1-0.5,0-0.6-0.3c-0.1-0.2,0-0.5,0.3-0.6C20.8,7.1,21.1,7.2,21.2,7.5
			L21.2,7.5z"/>
		<path class="st1" d="M21.7,8.9c0.1,0.2,0,0.5-0.3,0.6c-0.2,0.1-0.5,0-0.6-0.3c-0.1-0.2,0-0.5,0.3-0.6C21.3,8.5,21.6,8.6,21.7,8.9
			L21.7,8.9z"/>
		<path class="st1" d="M15.4,9.4c0.1,0.2,0,0.5-0.3,0.6c-0.2,0.1-0.5,0-0.6-0.3c-0.1-0.2,0-0.5,0.3-0.6C15,9,15.3,9.2,15.4,9.4
			L15.4,9.4z"/>
		<path class="st1" d="M16.3,10.5c0.1,0.2,0,0.5-0.3,0.6c-0.2,0.1-0.5,0-0.6-0.3c-0.1-0.2,0-0.5,0.3-0.6
			C16,10.2,16.2,10.3,16.3,10.5L16.3,10.5z"/>
		<path class="st1" d="M17.3,11.7c0.1,0.2,0,0.5-0.3,0.6c-0.2,0.1-0.5,0-0.6-0.3c-0.1-0.2,0-0.5,0.3-0.6
			C16.9,11.3,17.2,11.5,17.3,11.7L17.3,11.7z"/>
		<path class="st1" d="M14.3,15.7c0.1,0.2,0,0.5-0.3,0.6c-0.2,0.1-0.5,0-0.6-0.3c-0.1-0.2,0-0.5,0.3-0.6
			C13.9,15.4,14.2,15.5,14.3,15.7L14.3,15.7z"/>
		<path class="st1" d="M12.8,21.1c0.1,0.2,0,0.5-0.3,0.6c-0.2,0.1-0.5,0-0.6-0.3c-0.1-0.2,0-0.5,0.3-0.6
			C12.4,20.7,12.7,20.8,12.8,21.1L12.8,21.1z"/>
		<path class="st1" d="M13.3,27c0.1,0.2,0,0.5-0.3,0.6c-0.2,0.1-0.5,0-0.6-0.3c-0.1-0.2,0-0.5,0.3-0.6S13.2,26.7,13.3,27L13.3,27z"
			/>
		<path class="st1" d="M15.4,31.1c0.1,0.2,0,0.5-0.3,0.6c-0.2,0.1-0.5,0-0.6-0.3c-0.1-0.2,0-0.5,0.3-0.6
			C15.1,30.8,15.3,30.9,15.4,31.1L15.4,31.1z"/>
		<path class="st1" d="M14.1,31.9c0.1,0.2,0,0.5-0.3,0.6c-0.2,0.1-0.5,0-0.6-0.3c-0.1-0.2,0-0.5,0.3-0.6S14,31.7,14.1,31.9
			L14.1,31.9z"/>
		<path class="st1" d="M12.8,32.6c0.1,0.2,0,0.5-0.3,0.6c-0.2,0.1-0.5,0-0.6-0.3c-0.1-0.2,0-0.5,0.3-0.6
			C12.5,32.3,12.7,32.4,12.8,32.6L12.8,32.6z"/>
		<path class="st1" d="M11.8,27.2c0.1,0.2,0,0.5-0.3,0.6c-0.2,0.1-0.5,0-0.6-0.3c-0.1-0.2,0-0.5,0.3-0.6
			C11.5,26.9,11.7,27,11.8,27.2L11.8,27.2z"/>
		<path class="st1" d="M10.3,27.5c0.1,0.2,0,0.5-0.3,0.6c-0.2,0.1-0.5,0-0.6-0.3c-0.1-0.2,0-0.5,0.3-0.6S10.3,27.2,10.3,27.5
			L10.3,27.5z"/>
		<path class="st1" d="M11.3,20.8c0.1,0.2,0,0.5-0.3,0.6c-0.2,0.1-0.5,0-0.6-0.3c-0.1-0.2,0-0.5,0.3-0.6S11.2,20.6,11.3,20.8
			L11.3,20.8z"/>
		<path class="st1" d="M9.8,20.6c0.1,0.2,0,0.5-0.3,0.6c-0.2,0.1-0.5,0-0.6-0.3c-0.1-0.2,0-0.5,0.3-0.6S9.8,20.3,9.8,20.6L9.8,20.6z
			"/>
		<path class="st1" d="M13,15c0.1,0.2,0,0.5-0.3,0.6c-0.2,0.1-0.5,0-0.6-0.3c-0.1-0.2,0-0.5,0.3-0.6C12.6,14.6,12.9,14.8,13,15
			L13,15z"/>
		<path class="st1" d="M11.7,14.2c0.1,0.2,0,0.5-0.3,0.6c-0.2,0.1-0.5,0-0.6-0.3c-0.1-0.2,0-0.5,0.3-0.6
			C11.4,13.9,11.6,14,11.7,14.2L11.7,14.2z"/>
		<path class="st1" d="M42.9,27.1c0.1,0.2,0,0.5-0.3,0.6c-0.2,0.1-0.5,0-0.6-0.3s0-0.5,0.3-0.6C42.5,26.8,42.8,26.9,42.9,27.1
			L42.9,27.1z"/>
	</g>
	<path class="st1" d="M23.3,41c0,0.2-0.2,0.5-0.5,0.5c-0.2,0-0.5-0.2-0.5-0.5s0.2-0.5,0.5-0.5C23.1,40.5,23.3,40.7,23.3,41L23.3,41z
		"/>
	<path class="st1" d="M24.8,40.9c0,0.3-0.2,0.5-0.5,0.5c-0.2,0-0.5-0.2-0.5-0.5c0-0.2,0.2-0.4,0.5-0.4
		C24.6,40.5,24.8,40.7,24.8,40.9L24.8,40.9z"/>
	<path class="st1" d="M26.3,40.8c0,0.2-0.2,0.5-0.5,0.5s-0.5-0.2-0.5-0.5s0.2-0.5,0.5-0.5C26.1,40.4,26.3,40.6,26.3,40.8L26.3,40.8z
		"/>
	<path class="st1" d="M27.8,40.7c0,0.3-0.2,0.5-0.5,0.5s-0.5-0.2-0.5-0.5c0-0.2,0.2-0.5,0.5-0.5C27.6,40.3,27.8,40.5,27.8,40.7
		L27.8,40.7z"/>
	<path class="st1" d="M29.3,40.7c0,0.2-0.2,0.5-0.5,0.5s-0.5-0.2-0.5-0.5s0.2-0.5,0.5-0.5C29.1,40.2,29.3,40.4,29.3,40.7L29.3,40.7z
		"/>
	<path class="st1" d="M23.7,42.8c0,0.2-0.2,0.5-0.5,0.5s-0.5-0.2-0.5-0.5s0.2-0.5,0.5-0.5S23.7,42.5,23.7,42.8L23.7,42.8z"/>
	<path class="st1" d="M25.2,42.7c0,0.2-0.2,0.5-0.4,0.5c-0.3,0-0.5-0.2-0.5-0.5s0.2-0.5,0.5-0.5C25,42.2,25.2,42.4,25.2,42.7
		L25.2,42.7z"/>
	<path class="st1" d="M26.7,42.6c0,0.3-0.2,0.5-0.5,0.5s-0.5-0.2-0.5-0.5c0-0.2,0.2-0.5,0.5-0.5S26.7,42.4,26.7,42.6L26.7,42.6z"/>
	<path class="st1" d="M28.3,42.5c0,0.3-0.2,0.5-0.5,0.5c-0.2,0-0.5-0.2-0.5-0.5c0-0.2,0.2-0.5,0.5-0.5C28,42.1,28.3,42.3,28.3,42.5
		L28.3,42.5z"/>
	<path class="st1" d="M29.8,42.4c0,0.3-0.2,0.5-0.5,0.5c-0.2,0-0.5-0.2-0.5-0.5s0.2-0.5,0.5-0.5C29.6,42,29.8,42.2,29.8,42.4
		L29.8,42.4z"/>
	<path class="st1" d="M23.5,44.6c0,0.2-0.2,0.5-0.5,0.5c-0.2,0-0.5-0.2-0.5-0.5c0-0.2,0.2-0.5,0.5-0.5S23.5,44.3,23.5,44.6
		L23.5,44.6z"/>
	<path class="st1" d="M25,44.5c0,0.2-0.2,0.5-0.5,0.5c-0.2,0-0.5-0.2-0.5-0.5s0.2-0.5,0.5-0.5S25,44.2,25,44.5L25,44.5z"/>
	<path class="st1" d="M26.5,44.4c0,0.2-0.2,0.5-0.5,0.5s-0.5-0.2-0.5-0.5s0.2-0.5,0.5-0.5C26.3,44,26.5,44.2,26.5,44.4L26.5,44.4z"
		/>
	<path class="st1" d="M28,44.3c0,0.3-0.2,0.5-0.5,0.5c-0.2,0-0.5-0.2-0.5-0.5c0-0.2,0.2-0.5,0.5-0.5C27.8,43.9,28,44.1,28,44.3
		L28,44.3z"/>
	<path class="st1" d="M29.6,44.2c0,0.3-0.2,0.5-0.5,0.5c-0.2,0-0.5-0.2-0.5-0.5c0-0.2,0.2-0.5,0.5-0.5C29.4,43.8,29.6,44,29.6,44.2
		L29.6,44.2z"/>
</g>
<g class="st3">
	<g>
		<path class="st4" d="M88,26.6c0,2.7-0.4,5.2-1.3,7.5s-2.1,4.2-3.6,5.9c-1.5,1.6-3.1,2.7-4.9,3.5s-3.8,1.1-5.8,1.1
			c-2,0-4-0.4-5.8-1.1c-1.8-0.7-3.4-1.8-4.8-3.2c-1.6-1.6-2.8-3.6-3.7-5.9s-1.4-4.9-1.4-7.7c0-2.6,0.4-5,1.1-7.2
			c0.7-2.2,1.9-4.1,3.4-5.8c1.4-1.6,3-2.8,4.9-3.7c1.9-0.8,4-1.3,6.2-1.3c2.2,0,4.2,0.4,6,1.2s3.5,1.9,4.9,3.5
			c1.6,1.7,2.8,3.7,3.6,6C87.6,21.6,88,24,88,26.6z M80.5,26.9c0-1.7-0.3-3.4-0.8-5.1c-0.5-1.7-1.3-3.1-2.3-4.2
			c-0.7-0.7-1.4-1.3-2.2-1.7c-0.8-0.4-1.8-0.6-2.8-0.6c-1,0-2,0.2-2.8,0.6s-1.7,1-2.4,1.8c-0.9,1-1.6,2.4-2.1,3.9
			c-0.5,1.6-0.8,3.2-0.8,4.9c0,1.8,0.3,3.5,0.8,5.1c0.5,1.5,1.3,2.8,2.2,3.9c0.7,0.7,1.4,1.3,2.3,1.7c0.9,0.4,1.8,0.6,2.8,0.6
			c1,0,1.9-0.2,2.8-0.6s1.6-1,2.3-1.8c0.9-1,1.6-2.2,2.2-3.8C80.2,30.2,80.5,28.6,80.5,26.9z"/>
		<path class="st4" d="M119.3,33.6c0,1.9-0.5,3.6-1.5,5.1c-1,1.5-2.5,2.6-4.4,3.4c-1.5,0.6-3.3,1.1-5.3,1.3c-2,0.2-4.2,0.4-6.7,0.4
			c-1.3,0-2.7,0-4.1-0.1s-2.5-0.1-3.2-0.1c0-2.8,0.1-5.6,0.1-8.5c0-2.9,0-6,0-9.3c0-3.6,0-7.2,0-10.6c0-3.5,0-5.3,0-5.5
			c0.3,0,1.1,0,2.5-0.1c1.4-0.1,2.9-0.1,4.5-0.1c2.4,0,4.4,0.1,6,0.2c1.6,0.2,3,0.5,4.4,0.9c1.6,0.6,2.9,1.5,3.9,2.7
			s1.4,2.7,1.4,4.5c0,1.6-0.4,3.1-1.2,4.4s-1.9,2.3-3.3,2.9v0.2c0.9,0.1,1.7,0.4,2.4,0.7c0.7,0.3,1.4,0.8,2,1.4
			c0.9,0.8,1.5,1.7,1.9,2.7C119,31,119.3,32.2,119.3,33.6z M111.7,32.6c0-0.8-0.1-1.5-0.4-2c-0.3-0.6-0.6-1.1-1.1-1.6
			c-0.4-0.4-0.9-0.7-1.6-1s-1.4-0.4-2.2-0.4c-0.6,0-1.1,0-1.5,0c-0.4,0-0.6,0-0.7,0l-0.6-3.2c0.8,0,1.5-0.2,2.2-0.4
			c0.7-0.2,1.3-0.5,1.7-0.9c0.5-0.4,0.9-0.9,1.2-1.6s0.5-1.4,0.5-2.3c0-0.8-0.2-1.5-0.5-2.1s-0.8-1.2-1.4-1.5
			c-0.5-0.3-1.1-0.5-1.8-0.6c-0.7-0.1-1.4-0.2-2.2-0.2c-0.4,0-0.8,0-1.2,0c-0.4,0-0.7,0-0.9,0c0,1.7,0,3.6-0.1,5.7
			c0,2.1,0,3.9,0,5.5c0,1.7,0,4,0,6.9s0,4.5,0,4.7c0.2,0,0.5,0,0.9,0s0.9,0,1.4,0c1.2,0,2.3-0.1,3.3-0.2c1.1-0.1,2-0.4,2.7-0.9
			c0.7-0.4,1.2-1,1.6-1.7C111.5,34.4,111.7,33.6,111.7,32.6z"/>
		<path class="st4" d="M132.5,43.6h-7.3c0-1.4,0-3.5,0.1-6.2c0-2.7,0-6.4,0-11.1c0-2,0-4.4,0-7.5c0-3,0-6.1-0.1-9.2h7.3
			c0,2.3,0,5-0.1,8c0,3,0,5.7,0,8.1c0,4.8,0,8.5,0,11.1S132.5,41.7,132.5,43.6z"/>
		<path class="st4" d="M160.8,43.6c-0.4,0-1.9,0-4.6,0s-4.8,0-6.4,0c-1.8,0-3.8,0-6.1,0s-3.8,0-4.3,0l-1.8-4.7
			c1.2-0.6,2.3-1.2,3.5-1.9c1.2-0.7,2.3-1.4,3.5-2.2c1.7-1.2,3-2.3,3.8-3.3c0.8-1.1,1.3-2.3,1.3-3.6c0-0.9-0.2-1.7-0.6-2.3
			c-0.4-0.6-1-1.1-1.8-1.4c-0.6-0.3-1.4-0.5-2.3-0.6s-1.8-0.2-2.8-0.2c-0.6,0-1.2,0-1.8,0.1c-0.6,0-1.1,0.1-1.5,0.1l0.7-6
			c0.5,0,1,0,1.7-0.1c0.7,0,1.3-0.1,1.9-0.1c1.7,0,3.3,0.1,4.7,0.3s2.7,0.6,4,1.2c1.8,0.8,3.1,1.8,3.9,3.1c0.8,1.3,1.3,2.8,1.3,4.6
			c0,1.2-0.3,2.4-0.8,3.6c-0.5,1.2-1.2,2.2-2.1,3.1c-0.8,0.8-1.7,1.7-2.9,2.5c-1.2,0.8-2.3,1.5-3.3,2.1l0,0.2c1-0.1,1.9-0.1,2.8-0.1
			c0.9,0,1.7-0.1,2.4-0.1c1.6,0,3.2,0,4.8-0.1c1.6,0,2.6,0,2.9,0V43.6z"/>
		<path class="st4" d="M188.4,30.7c0,2-0.3,3.9-1,5.6c-0.7,1.8-1.6,3.3-2.9,4.5c-1.1,1.1-2.4,2-4,2.6c-1.5,0.6-3.2,0.9-5,0.9
			c-1.7,0-3.3-0.3-4.9-0.9c-1.5-0.6-2.9-1.5-4-2.6c-1.3-1.3-2.2-2.8-2.9-4.5s-1-3.6-1-5.7c0-2,0.3-3.8,0.9-5.4
			c0.6-1.6,1.5-3.1,2.7-4.4c1.1-1.2,2.5-2.2,4.1-2.9c1.6-0.7,3.3-1,5.1-1c1.8,0,3.5,0.3,5.1,0.9c1.5,0.6,2.9,1.5,4,2.7
			c1.2,1.3,2.1,2.8,2.8,4.4C188,26.8,188.4,28.7,188.4,30.7z M181.6,30.9c0-1.2-0.2-2.4-0.5-3.5c-0.3-1.1-0.9-2-1.5-2.8
			c-0.5-0.6-1.1-1-1.7-1.3c-0.7-0.3-1.4-0.5-2.2-0.5c-0.9,0-1.7,0.2-2.3,0.5c-0.6,0.3-1.2,0.8-1.7,1.3c-0.6,0.7-1.1,1.5-1.4,2.7
			c-0.3,1.1-0.5,2.2-0.5,3.4c0,1.3,0.2,2.4,0.5,3.5c0.3,1.1,0.9,2,1.6,2.8c0.5,0.5,1.1,1,1.7,1.3c0.6,0.3,1.4,0.5,2.2,0.5
			c0.8,0,1.5-0.2,2.2-0.5c0.7-0.3,1.2-0.7,1.7-1.2c0.7-0.7,1.2-1.6,1.5-2.7C181.4,33.2,181.6,32.1,181.6,30.9z"/>
		<path class="st4" d="M214.4,43.6c-0.4,0-1.9,0-4.6,0s-4.8,0-6.4,0c-1.8,0-3.8,0-6.1,0s-3.8,0-4.3,0l-1.8-4.7
			c1.2-0.6,2.3-1.2,3.5-1.9c1.2-0.7,2.3-1.4,3.5-2.2c1.7-1.2,3-2.3,3.8-3.3c0.8-1.1,1.3-2.3,1.3-3.6c0-0.9-0.2-1.7-0.6-2.3
			c-0.4-0.6-1-1.1-1.8-1.4c-0.6-0.3-1.4-0.5-2.3-0.6s-1.8-0.2-2.8-0.2c-0.6,0-1.2,0-1.8,0.1c-0.6,0-1.1,0.1-1.5,0.1l0.7-6
			c0.5,0,1,0,1.7-0.1c0.7,0,1.3-0.1,1.9-0.1c1.7,0,3.3,0.1,4.7,0.3s2.7,0.6,4,1.2c1.8,0.8,3.1,1.8,3.9,3.1c0.8,1.3,1.3,2.8,1.3,4.6
			c0,1.2-0.3,2.4-0.8,3.6c-0.5,1.2-1.2,2.2-2.1,3.1c-0.8,0.8-1.7,1.7-2.9,2.5c-1.2,0.8-2.3,1.5-3.3,2.1l0,0.2c1-0.1,1.9-0.1,2.8-0.1
			c0.9,0,1.7-0.1,2.4-0.1c1.6,0,3.2,0,4.8-0.1c1.6,0,2.6,0,2.9,0V43.6z"/>
		<path class="st4" d="M230.3,43.6h-6.8c0-0.7,0-2.2,0.1-4.3c0-2.2,0-4.8,0-7.8c0-0.9,0-1.9,0-3.1c0-1.2,0-2.3,0-3.3l-0.1-0.1
			c-0.6,0.4-1.5,1-2.7,1.7c-1.2,0.8-2.3,1.5-3.5,2.3l-2.3-4.5c2.3-1.5,4.5-3,6.7-4.5c2.2-1.5,3.6-2.5,4.2-2.9l4.4,3.6
			c0,2.3,0,4.6-0.1,6.8c0,2.2,0,3.7,0,4.5c0,1.9,0,4.2,0,6.7C230.3,41.3,230.3,42.9,230.3,43.6z"/>
	</g>
</g>
</svg>
