<svg width="134" height="50" xmlns="http://www.w3.org/2000/svg" xml:space="preserve" version="1.1">

 <g>
  <title>Layer 1</title>
  <circle id="svg_1" stroke-miterlimit="10" stroke-width="1.9404" stroke="#FFFFFF" fill="#FFC337" clip-rule="evenodd" fill-rule="evenodd" r="23.6" cy="25" cx="26.2" class="st0"/>
  <g id="svg_2">
   <path id="svg_3" stroke-miterlimit="10" stroke-width="0.4262" stroke="#231F20" fill="#231F20" clip-rule="evenodd" fill-rule="evenodd" d="m23.5,39.2c0,0.2 -0.2,0.4 -0.5,0.4c-0.2,0 -0.5,-0.2 -0.5,-0.4s0.2,-0.5 0.5,-0.5s0.5,0.3 0.5,0.5l0,0z" class="st1"/>
   <path id="svg_4" stroke-miterlimit="10" stroke-width="0.4262" stroke="#231F20" fill="#231F20" clip-rule="evenodd" fill-rule="evenodd" d="m25,39.1c0,0.3 -0.2,0.5 -0.5,0.5s-0.5,-0.2 -0.5,-0.5c0,-0.2 0.2,-0.5 0.5,-0.5c0.3,0.1 0.5,0.3 0.5,0.5l0,0z" class="st1"/>
   <path id="svg_5" stroke-miterlimit="10" stroke-width="0.4262" stroke="#231F20" fill="#231F20" clip-rule="evenodd" fill-rule="evenodd" d="m26.6,39.1c0,0.3 -0.2,0.5 -0.5,0.5s-0.5,-0.2 -0.5,-0.5s0.2,-0.5 0.5,-0.5s0.5,0.2 0.5,0.5l0,0z" class="st1"/>
   <path id="svg_6" stroke-miterlimit="10" stroke-width="0.4262" stroke="#231F20" fill="#231F20" clip-rule="evenodd" fill-rule="evenodd" d="m28.1,39c0,0.2 -0.2,0.5 -0.5,0.5s-0.5,-0.2 -0.5,-0.5c0,-0.2 0.2,-0.5 0.5,-0.5s0.5,0.2 0.5,0.5l0,0z" class="st1"/>
   <path id="svg_7" stroke-miterlimit="10" stroke-width="0.4262" stroke="#231F20" fill="#231F20" clip-rule="evenodd" fill-rule="evenodd" d="m29.6,38.9c0,0.3 -0.2,0.5 -0.5,0.5s-0.5,-0.2 -0.5,-0.5c0,-0.2 0.2,-0.5 0.5,-0.5s0.5,0.2 0.5,0.5l0,0z" class="st1"/>
   <path id="svg_8" stroke-miterlimit="10" stroke-width="0.2131" stroke="#231F20" fill="#231F20" clip-rule="evenodd" fill-rule="evenodd" d="m30.7,36.1c0,0.6 -0.5,1 -1,1c-0.6,0 -1,-0.5 -1,-1s0.5,-1 1,-1c0.6,0 1,0.5 1,1l0,0z" class="st2"/>
   <path id="svg_9" stroke-miterlimit="10" stroke-width="0.2131" stroke="#231F20" fill="#231F20" clip-rule="evenodd" fill-rule="evenodd" d="m31.4,33.5c0,0.6 -0.5,1 -1,1c-0.6,0 -1,-0.4 -1,-1s0.5,-1 1,-1s1,0.4 1,1l0,0z" class="st2"/>
   <path id="svg_10" stroke-miterlimit="10" stroke-width="0.2131" stroke="#231F20" fill="#231F20" clip-rule="evenodd" fill-rule="evenodd" d="m32.6,31.1c0,0.6 -0.5,1 -1,1c-0.6,0 -1,-0.4 -1,-1s0.5,-1 1,-1c0.6,0 1,0.4 1,1l0,0z" class="st2"/>
   <path id="svg_11" stroke-miterlimit="10" stroke-width="0.2131" stroke="#231F20" fill="#231F20" clip-rule="evenodd" fill-rule="evenodd" d="m34.4,28.7c0,0.6 -0.5,1 -1,1c-0.6,0 -1,-0.5 -1,-1s0.5,-1 1,-1s1,0.5 1,1l0,0z" class="st2"/>
   <path id="svg_12" stroke-miterlimit="10" stroke-width="0.2131" stroke="#231F20" fill="#231F20" clip-rule="evenodd" fill-rule="evenodd" d="m35.6,26.2c0,0.6 -0.5,1 -1,1c-0.6,0 -1,-0.4 -1,-1s0.5,-1 1,-1c0.6,0 1,0.4 1,1l0,0z" class="st2"/>
   <path id="svg_13" stroke-miterlimit="10" stroke-width="0.2131" stroke="#231F20" fill="#231F20" clip-rule="evenodd" fill-rule="evenodd" d="m36.5,23.3c0,0.6 -0.5,1 -1,1s-1,-0.5 -1,-1c0,-0.6 0.5,-1 1,-1s1,0.5 1,1l0,0z" class="st2"/>
   <path id="svg_14" stroke-miterlimit="10" stroke-width="0.2131" stroke="#231F20" fill="#231F20" clip-rule="evenodd" fill-rule="evenodd" d="m36.2,20.5c0,0.6 -0.5,1 -1,1c-0.6,0 -1,-0.4 -1,-1s0.4,-1 1,-1s1,0.4 1,1l0,0z" class="st2"/>
   <path id="svg_15" stroke-miterlimit="10" stroke-width="0.2131" stroke="#231F20" fill="#231F20" clip-rule="evenodd" fill-rule="evenodd" d="m35.4,18c0,0.6 -0.5,1 -1,1c-0.6,0 -1,-0.4 -1,-1s0.5,-1 1,-1s1,0.4 1,1l0,0z" class="st2"/>
   <path id="svg_16" stroke-miterlimit="10" stroke-width="0.2131" stroke="#231F20" fill="#231F20" clip-rule="evenodd" fill-rule="evenodd" d="m34,15.9c0,0.6 -0.5,1 -1,1c-0.6,0 -1,-0.5 -1,-1c0,-0.6 0.5,-1 1,-1s1,0.4 1,1l0,0z" class="st2"/>
   <path id="svg_17" stroke-miterlimit="10" stroke-width="0.2131" stroke="#231F20" fill="#231F20" clip-rule="evenodd" fill-rule="evenodd" d="m32,14.2c0,0.6 -0.5,1 -1,1c-0.6,0 -1,-0.5 -1,-1c0,-0.6 0.5,-1 1,-1s1,0.5 1,1l0,0z" class="st2"/>
   <path id="svg_18" stroke-miterlimit="10" stroke-width="0.2131" stroke="#231F20" fill="#231F20" clip-rule="evenodd" fill-rule="evenodd" d="m29.6,13.1c0,0.6 -0.5,1 -1,1c-0.6,0 -1,-0.5 -1,-1c0,-0.6 0.5,-1 1,-1s1,0.4 1,1l0,0z" class="st2"/>
   <path id="svg_19" stroke-miterlimit="10" stroke-width="0.2131" stroke="#231F20" fill="#231F20" clip-rule="evenodd" fill-rule="evenodd" d="m27.1,12.8c0,0.6 -0.5,1 -1,1c-0.6,0 -1,-0.4 -1,-1s0.5,-1 1,-1s1,0.5 1,1l0,0z" class="st2"/>
   <path id="svg_20" stroke-miterlimit="10" stroke-width="0.2131" stroke="#231F20" fill="#231F20" clip-rule="evenodd" fill-rule="evenodd" d="m24.6,13.2c0,0.6 -0.5,1 -1,1c-0.6,0 -1,-0.4 -1,-1s0.5,-1 1,-1s1,0.4 1,1l0,0z" class="st2"/>
   <path id="svg_21" stroke-miterlimit="10" stroke-width="0.2131" stroke="#231F20" fill="#231F20" clip-rule="evenodd" fill-rule="evenodd" d="m22.2,14.3c0,0.6 -0.5,1 -1,1s-1,-0.5 -1,-1c0,-0.6 0.5,-1 1,-1s1,0.5 1,1l0,0z" class="st2"/>
   <path id="svg_22" stroke-miterlimit="10" stroke-width="0.2131" stroke="#231F20" fill="#231F20" clip-rule="evenodd" fill-rule="evenodd" d="m20.2,16c0,0.6 -0.5,1 -1,1c-0.6,0 -1,-0.5 -1,-1c0,-0.6 0.4,-1 1,-1c0.5,0 1,0.4 1,1l0,0z" class="st2"/>
   <path id="svg_23" stroke-miterlimit="10" stroke-width="0.2131" stroke="#231F20" fill="#231F20" clip-rule="evenodd" fill-rule="evenodd" d="m18.8,18.1c0,0.6 -0.5,1 -1,1c-0.6,0 -1,-0.5 -1,-1c0,-0.6 0.4,-1 1,-1c0.5,0 1,0.4 1,1l0,0z" class="st2"/>
   <path id="svg_24" stroke-miterlimit="10" stroke-width="0.2131" stroke="#231F20" fill="#231F20" clip-rule="evenodd" fill-rule="evenodd" d="m17.9,20.6c0,0.6 -0.4,1 -1,1s-1,-0.5 -1,-1c0,-0.6 0.5,-1 1,-1c0.6,0 1,0.5 1,1l0,0z" class="st2"/>
   <path id="svg_25" stroke-miterlimit="10" stroke-width="0.2131" stroke="#231F20" fill="#231F20" clip-rule="evenodd" fill-rule="evenodd" d="m17.8,23.5c0,0.6 -0.5,1 -1,1c-0.6,0 -1,-0.5 -1,-1c0,-0.6 0.5,-1 1,-1s1,0.4 1,1l0,0z" class="st2"/>
   <path id="svg_26" stroke-miterlimit="10" stroke-width="0.2131" stroke="#231F20" fill="#231F20" clip-rule="evenodd" fill-rule="evenodd" d="m18.7,26.1c0,0.6 -0.5,1 -1,1c-0.6,0 -1,-0.4 -1,-1s0.5,-1 1,-1s1,0.5 1,1l0,0z" class="st2"/>
   <path id="svg_27" stroke-miterlimit="10" stroke-width="0.2131" stroke="#231F20" fill="#231F20" clip-rule="evenodd" fill-rule="evenodd" d="m19.9,28.7c0,0.6 -0.5,1 -1,1s-1,-0.5 -1,-1c0,-0.6 0.5,-1 1,-1s1,0.4 1,1l0,0z" class="st2"/>
   <path id="svg_28" stroke-miterlimit="10" stroke-width="0.2131" stroke="#231F20" fill="#231F20" clip-rule="evenodd" fill-rule="evenodd" d="m21.7,31c0,0.6 -0.5,1 -1,1c-0.6,0 -1,-0.5 -1,-1c0,-0.6 0.5,-1 1,-1s1,0.5 1,1l0,0z" class="st2"/>
   <path id="svg_29" stroke-miterlimit="10" stroke-width="0.2131" stroke="#231F20" fill="#231F20" clip-rule="evenodd" fill-rule="evenodd" d="m22.9,33.4c0,0.6 -0.5,1 -1,1c-0.6,0 -1,-0.5 -1,-1c0,-0.6 0.5,-1 1,-1c0.6,0 1,0.5 1,1l0,0z" class="st2"/>
   <path id="svg_30" stroke-miterlimit="10" stroke-width="0.2131" stroke="#231F20" fill="#231F20" clip-rule="evenodd" fill-rule="evenodd" d="m23.6,36.1c0,0.6 -0.5,1 -1,1c-0.6,0 -1,-0.5 -1,-1s0.5,-1 1,-1s1,0.4 1,1l0,0z" class="st2"/>
   <g id="svg_31">
    <path id="svg_32" stroke-miterlimit="10" stroke-width="0.4262" stroke="#231F20" fill="#231F20" clip-rule="evenodd" fill-rule="evenodd" d="m37.8,30.9c0,0.2 -0.2,0.5 -0.5,0.5s-0.5,-0.2 -0.5,-0.5s0.2,-0.5 0.5,-0.5c0.3,0.1 0.5,0.3 0.5,0.5l0,0z" class="st1"/>
    <path id="svg_33" stroke-miterlimit="10" stroke-width="0.4262" stroke="#231F20" fill="#231F20" clip-rule="evenodd" fill-rule="evenodd" d="m39.1,31.7c0,0.3 -0.2,0.5 -0.5,0.5c-0.2,0 -0.5,-0.2 -0.5,-0.5c0,-0.2 0.2,-0.5 0.5,-0.5c0.3,0 0.5,0.2 0.5,0.5l0,0z" class="st1"/>
    <path id="svg_34" stroke-miterlimit="10" stroke-width="0.4262" stroke="#231F20" fill="#231F20" clip-rule="evenodd" fill-rule="evenodd" d="m40.4,32.4c0,0.3 -0.2,0.5 -0.5,0.5c-0.2,0 -0.5,-0.2 -0.5,-0.5s0.2,-0.5 0.5,-0.5c0.3,0.1 0.5,0.3 0.5,0.5l0,0z" class="st1"/>
    <path id="svg_35" stroke-miterlimit="10" stroke-width="0.4262" stroke="#231F20" fill="#231F20" clip-rule="evenodd" fill-rule="evenodd" d="m39.9,26.6c0.1,0.2 0,0.5 -0.3,0.6c-0.2,0.1 -0.5,0 -0.6,-0.3c-0.1,-0.2 0,-0.5 0.3,-0.6c0.3,0 0.5,0.1 0.6,0.3l0,0z" class="st1"/>
    <path id="svg_36" stroke-miterlimit="10" stroke-width="0.4262" stroke="#231F20" fill="#231F20" clip-rule="evenodd" fill-rule="evenodd" d="m41.4,26.9c0.1,0.2 0,0.5 -0.3,0.6c-0.2,0.1 -0.5,0 -0.6,-0.3c-0.1,-0.2 0,-0.5 0.3,-0.6c0.3,-0.1 0.5,0 0.6,0.3l0,0z" class="st1"/>
    <path id="svg_37" stroke-miterlimit="10" stroke-width="0.4262" stroke="#231F20" fill="#231F20" clip-rule="evenodd" fill-rule="evenodd" d="m40.4,20.7c0.1,0.2 0,0.5 -0.3,0.6c-0.2,0.1 -0.5,0 -0.6,-0.3c-0.1,-0.2 0,-0.5 0.3,-0.6c0.3,0 0.6,0.1 0.6,0.3l0,0z" class="st1"/>
    <path id="svg_38" stroke-miterlimit="10" stroke-width="0.4262" stroke="#231F20" fill="#231F20" clip-rule="evenodd" fill-rule="evenodd" d="m41.9,20.5c0.1,0.2 0,0.5 -0.3,0.6c-0.2,0.1 -0.5,0 -0.6,-0.3c-0.1,-0.2 0,-0.5 0.3,-0.6c0.3,-0.1 0.5,0 0.6,0.3l0,0z" class="st1"/>
    <path id="svg_39" stroke-miterlimit="10" stroke-width="0.4262" stroke="#231F20" fill="#231F20" clip-rule="evenodd" fill-rule="evenodd" d="m43.4,20.2c0.1,0.2 0,0.5 -0.3,0.6c-0.2,0.1 -0.5,0 -0.6,-0.3c-0.1,-0.2 0,-0.5 0.3,-0.6c0.2,-0.1 0.5,0.1 0.6,0.3l0,0z" class="st1"/>
    <path id="svg_40" stroke-miterlimit="10" stroke-width="0.4262" stroke="#231F20" fill="#231F20" clip-rule="evenodd" fill-rule="evenodd" d="m38.9,15.4c0.1,0.2 0,0.5 -0.3,0.6c-0.2,0.1 -0.5,0 -0.6,-0.3c-0.1,-0.2 0,-0.5 0.3,-0.6c0.3,-0.1 0.5,0 0.6,0.3l0,0z" class="st1"/>
    <path id="svg_41" stroke-miterlimit="10" stroke-width="0.4262" stroke="#231F20" fill="#231F20" clip-rule="evenodd" fill-rule="evenodd" d="m40.2,14.6c0.1,0.2 0,0.5 -0.3,0.6c-0.2,0.1 -0.5,0 -0.6,-0.3c-0.1,-0.2 0,-0.5 0.3,-0.6c0.3,0 0.6,0.1 0.6,0.3l0,0z" class="st1"/>
    <path id="svg_42" stroke-miterlimit="10" stroke-width="0.4262" stroke="#231F20" fill="#231F20" clip-rule="evenodd" fill-rule="evenodd" d="m41.5,13.9c0.1,0.2 0,0.5 -0.3,0.6c-0.2,0.1 -0.5,0 -0.6,-0.3c-0.1,-0.2 0,-0.5 0.3,-0.6c0.3,-0.1 0.5,0 0.6,0.3l0,0z" class="st1"/>
    <path id="svg_43" stroke-miterlimit="10" stroke-width="0.4262" stroke="#231F20" fill="#231F20" clip-rule="evenodd" fill-rule="evenodd" d="m35.9,11.3c0.1,0.2 0,0.5 -0.3,0.6c-0.2,0.1 -0.5,0 -0.6,-0.3c-0.1,-0.2 0,-0.5 0.3,-0.6c0.3,-0.1 0.5,0.1 0.6,0.3l0,0z" class="st1"/>
    <path id="svg_44" stroke-miterlimit="10" stroke-width="0.4262" stroke="#231F20" fill="#231F20" clip-rule="evenodd" fill-rule="evenodd" d="m36.9,10.2c0.1,0.2 0,0.5 -0.3,0.6c-0.2,0.1 -0.5,0 -0.6,-0.3c-0.1,-0.2 0,-0.5 0.3,-0.6c0.3,-0.1 0.5,0.1 0.6,0.3l0,0z" class="st1"/>
    <path id="svg_45" stroke-miterlimit="10" stroke-width="0.4262" stroke="#231F20" fill="#231F20" clip-rule="evenodd" fill-rule="evenodd" d="m37.9,9c0.1,0.2 0,0.5 -0.3,0.6c-0.2,0.1 -0.5,0 -0.6,-0.3c-0.1,-0.2 0,-0.5 0.3,-0.6c0.2,0 0.5,0.1 0.6,0.3l0,0z" class="st1"/>
    <path id="svg_46" stroke-miterlimit="10" stroke-width="0.4262" stroke="#231F20" fill="#231F20" clip-rule="evenodd" fill-rule="evenodd" d="m31.5,8.5c0.1,0.2 0,0.5 -0.3,0.6c-0.2,0.1 -0.5,0 -0.6,-0.3c-0.1,-0.2 0,-0.5 0.3,-0.6c0.3,0 0.5,0.1 0.6,0.3l0,0z" class="st1"/>
    <path id="svg_47" stroke-miterlimit="10" stroke-width="0.4262" stroke="#231F20" fill="#231F20" clip-rule="evenodd" fill-rule="evenodd" d="m32.1,7.1c0.1,0.2 0,0.5 -0.3,0.6c-0.2,0.1 -0.5,0 -0.6,-0.3c-0.1,-0.2 0,-0.5 0.3,-0.6c0.2,-0.1 0.5,0.1 0.6,0.3l0,0z" class="st1"/>
    <path id="svg_48" stroke-miterlimit="10" stroke-width="0.4262" stroke="#231F20" fill="#231F20" clip-rule="evenodd" fill-rule="evenodd" d="m32.6,5.7c0.1,0.2 0,0.5 -0.3,0.6c-0.2,0.1 -0.5,0 -0.6,-0.3c-0.1,-0.2 0,-0.5 0.3,-0.6c0.2,0 0.5,0.1 0.6,0.3l0,0z" class="st1"/>
    <path id="svg_49" stroke-miterlimit="10" stroke-width="0.4262" stroke="#231F20" fill="#231F20" clip-rule="evenodd" fill-rule="evenodd" d="m26.2,7.9c0.1,0.2 0,0.5 -0.3,0.6c-0.2,0.1 -0.5,0 -0.6,-0.3c-0.1,-0.2 0,-0.5 0.3,-0.6c0.3,0 0.6,0.1 0.6,0.3l0,0z" class="st1"/>
    <path id="svg_50" stroke-miterlimit="10" stroke-width="0.4262" stroke="#231F20" fill="#231F20" clip-rule="evenodd" fill-rule="evenodd" d="m26.2,6.4c0.1,0.2 0,0.5 -0.3,0.6c-0.2,0.1 -0.5,0 -0.6,-0.3c-0.1,-0.2 0,-0.5 0.3,-0.6c0.3,0 0.6,0.1 0.6,0.3l0,0z" class="st1"/>
    <path id="svg_51" stroke-miterlimit="10" stroke-width="0.4262" stroke="#231F20" fill="#231F20" clip-rule="evenodd" fill-rule="evenodd" d="m26.2,5c0.1,0.2 0,0.5 -0.3,0.6c-0.2,0.1 -0.5,0 -0.6,-0.3c-0.1,-0.2 0,-0.5 0.3,-0.6s0.6,0.1 0.6,0.3l0,0z" class="st1"/>
    <path id="svg_52" stroke-miterlimit="10" stroke-width="0.4262" stroke="#231F20" fill="#231F20" clip-rule="evenodd" fill-rule="evenodd" d="m20.6,6.1c0.1,0.2 0,0.5 -0.3,0.6c-0.2,0.1 -0.5,0 -0.6,-0.3c-0.1,-0.2 0,-0.5 0.3,-0.6s0.6,0 0.6,0.3l0,0z" class="st1"/>
    <path id="svg_53" stroke-miterlimit="10" stroke-width="0.4262" stroke="#231F20" fill="#231F20" clip-rule="evenodd" fill-rule="evenodd" d="m21.2,7.5c0.1,0.2 0,0.5 -0.3,0.6c-0.2,0.1 -0.5,0 -0.6,-0.3c-0.1,-0.2 0,-0.5 0.3,-0.6c0.2,-0.1 0.5,0 0.6,0.3l0,0z" class="st1"/>
    <path id="svg_54" stroke-miterlimit="10" stroke-width="0.4262" stroke="#231F20" fill="#231F20" clip-rule="evenodd" fill-rule="evenodd" d="m21.7,8.9c0.1,0.2 0,0.5 -0.3,0.6c-0.2,0.1 -0.5,0 -0.6,-0.3c-0.1,-0.2 0,-0.5 0.3,-0.6c0.2,-0.1 0.5,0 0.6,0.3l0,0z" class="st1"/>
    <path id="svg_55" stroke-miterlimit="10" stroke-width="0.4262" stroke="#231F20" fill="#231F20" clip-rule="evenodd" fill-rule="evenodd" d="m15.4,9.4c0.1,0.2 0,0.5 -0.3,0.6c-0.2,0.1 -0.5,0 -0.6,-0.3c-0.1,-0.2 0,-0.5 0.3,-0.6c0.2,-0.1 0.5,0.1 0.6,0.3l0,0z" class="st1"/>
    <path id="svg_56" stroke-miterlimit="10" stroke-width="0.4262" stroke="#231F20" fill="#231F20" clip-rule="evenodd" fill-rule="evenodd" d="m16.3,10.5c0.1,0.2 0,0.5 -0.3,0.6c-0.2,0.1 -0.5,0 -0.6,-0.3c-0.1,-0.2 0,-0.5 0.3,-0.6c0.3,0 0.5,0.1 0.6,0.3l0,0z" class="st1"/>
    <path id="svg_57" stroke-miterlimit="10" stroke-width="0.4262" stroke="#231F20" fill="#231F20" clip-rule="evenodd" fill-rule="evenodd" d="m17.3,11.7c0.1,0.2 0,0.5 -0.3,0.6c-0.2,0.1 -0.5,0 -0.6,-0.3c-0.1,-0.2 0,-0.5 0.3,-0.6c0.2,-0.1 0.5,0.1 0.6,0.3l0,0z" class="st1"/>
    <path id="svg_58" stroke-miterlimit="10" stroke-width="0.4262" stroke="#231F20" fill="#231F20" clip-rule="evenodd" fill-rule="evenodd" d="m14.3,15.7c0.1,0.2 0,0.5 -0.3,0.6c-0.2,0.1 -0.5,0 -0.6,-0.3c-0.1,-0.2 0,-0.5 0.3,-0.6c0.2,0 0.5,0.1 0.6,0.3l0,0z" class="st1"/>
    <path id="svg_59" stroke-miterlimit="10" stroke-width="0.4262" stroke="#231F20" fill="#231F20" clip-rule="evenodd" fill-rule="evenodd" d="m12.8,21.1c0.1,0.2 0,0.5 -0.3,0.6c-0.2,0.1 -0.5,0 -0.6,-0.3c-0.1,-0.2 0,-0.5 0.3,-0.6c0.2,-0.1 0.5,0 0.6,0.3l0,0z" class="st1"/>
    <path id="svg_60" stroke-miterlimit="10" stroke-width="0.4262" stroke="#231F20" fill="#231F20" clip-rule="evenodd" fill-rule="evenodd" d="m13.3,27c0.1,0.2 0,0.5 -0.3,0.6c-0.2,0.1 -0.5,0 -0.6,-0.3c-0.1,-0.2 0,-0.5 0.3,-0.6s0.5,0 0.6,0.3l0,0z" class="st1"/>
    <path id="svg_61" stroke-miterlimit="10" stroke-width="0.4262" stroke="#231F20" fill="#231F20" clip-rule="evenodd" fill-rule="evenodd" d="m15.4,31.1c0.1,0.2 0,0.5 -0.3,0.6c-0.2,0.1 -0.5,0 -0.6,-0.3c-0.1,-0.2 0,-0.5 0.3,-0.6c0.3,0 0.5,0.1 0.6,0.3l0,0z" class="st1"/>
    <path id="svg_62" stroke-miterlimit="10" stroke-width="0.4262" stroke="#231F20" fill="#231F20" clip-rule="evenodd" fill-rule="evenodd" d="m14.1,31.9c0.1,0.2 0,0.5 -0.3,0.6c-0.2,0.1 -0.5,0 -0.6,-0.3c-0.1,-0.2 0,-0.5 0.3,-0.6s0.5,0.1 0.6,0.3l0,0z" class="st1"/>
    <path id="svg_63" stroke-miterlimit="10" stroke-width="0.4262" stroke="#231F20" fill="#231F20" clip-rule="evenodd" fill-rule="evenodd" d="m12.8,32.6c0.1,0.2 0,0.5 -0.3,0.6c-0.2,0.1 -0.5,0 -0.6,-0.3c-0.1,-0.2 0,-0.5 0.3,-0.6c0.3,0 0.5,0.1 0.6,0.3l0,0z" class="st1"/>
    <path id="svg_64" stroke-miterlimit="10" stroke-width="0.4262" stroke="#231F20" fill="#231F20" clip-rule="evenodd" fill-rule="evenodd" d="m11.8,27.2c0.1,0.2 0,0.5 -0.3,0.6c-0.2,0.1 -0.5,0 -0.6,-0.3c-0.1,-0.2 0,-0.5 0.3,-0.6c0.3,0 0.5,0.1 0.6,0.3l0,0z" class="st1"/>
    <path id="svg_65" stroke-miterlimit="10" stroke-width="0.4262" stroke="#231F20" fill="#231F20" clip-rule="evenodd" fill-rule="evenodd" d="m10.3,27.5c0.1,0.2 0,0.5 -0.3,0.6c-0.2,0.1 -0.5,0 -0.6,-0.3c-0.1,-0.2 0,-0.5 0.3,-0.6s0.6,0 0.6,0.3l0,0z" class="st1"/>
    <path id="svg_66" stroke-miterlimit="10" stroke-width="0.4262" stroke="#231F20" fill="#231F20" clip-rule="evenodd" fill-rule="evenodd" d="m11.3,20.8c0.1,0.2 0,0.5 -0.3,0.6c-0.2,0.1 -0.5,0 -0.6,-0.3c-0.1,-0.2 0,-0.5 0.3,-0.6s0.5,0.1 0.6,0.3l0,0z" class="st1"/>
    <path id="svg_67" stroke-miterlimit="10" stroke-width="0.4262" stroke="#231F20" fill="#231F20" clip-rule="evenodd" fill-rule="evenodd" d="m9.8,20.6c0.1,0.2 0,0.5 -0.3,0.6c-0.2,0.1 -0.5,0 -0.6,-0.3c-0.1,-0.2 0,-0.5 0.3,-0.6s0.6,0 0.6,0.3l0,0z" class="st1"/>
    <path id="svg_68" stroke-miterlimit="10" stroke-width="0.4262" stroke="#231F20" fill="#231F20" clip-rule="evenodd" fill-rule="evenodd" d="m13,15c0.1,0.2 0,0.5 -0.3,0.6c-0.2,0.1 -0.5,0 -0.6,-0.3c-0.1,-0.2 0,-0.5 0.3,-0.6c0.2,-0.1 0.5,0.1 0.6,0.3l0,0z" class="st1"/>
    <path id="svg_69" stroke-miterlimit="10" stroke-width="0.4262" stroke="#231F20" fill="#231F20" clip-rule="evenodd" fill-rule="evenodd" d="m11.7,14.2c0.1,0.2 0,0.5 -0.3,0.6c-0.2,0.1 -0.5,0 -0.6,-0.3c-0.1,-0.2 0,-0.5 0.3,-0.6c0.3,0 0.5,0.1 0.6,0.3l0,0z" class="st1"/>
    <path id="svg_70" stroke-miterlimit="10" stroke-width="0.4262" stroke="#231F20" fill="#231F20" clip-rule="evenodd" fill-rule="evenodd" d="m42.9,27.1c0.1,0.2 0,0.5 -0.3,0.6c-0.2,0.1 -0.5,0 -0.6,-0.3s0,-0.5 0.3,-0.6c0.2,0 0.5,0.1 0.6,0.3l0,0z" class="st1"/>
   </g>
   <path id="svg_71" stroke-miterlimit="10" stroke-width="0.4262" stroke="#231F20" fill="#231F20" clip-rule="evenodd" fill-rule="evenodd" d="m23.3,41c0,0.2 -0.2,0.5 -0.5,0.5c-0.2,0 -0.5,-0.2 -0.5,-0.5s0.2,-0.5 0.5,-0.5c0.3,0 0.5,0.2 0.5,0.5l0,0z" class="st1"/>
   <path id="svg_72" stroke-miterlimit="10" stroke-width="0.4262" stroke="#231F20" fill="#231F20" clip-rule="evenodd" fill-rule="evenodd" d="m24.8,40.9c0,0.3 -0.2,0.5 -0.5,0.5c-0.2,0 -0.5,-0.2 -0.5,-0.5c0,-0.2 0.2,-0.4 0.5,-0.4c0.3,0 0.5,0.2 0.5,0.4l0,0z" class="st1"/>
   <path id="svg_73" stroke-miterlimit="10" stroke-width="0.4262" stroke="#231F20" fill="#231F20" clip-rule="evenodd" fill-rule="evenodd" d="m26.3,40.8c0,0.2 -0.2,0.5 -0.5,0.5s-0.5,-0.2 -0.5,-0.5s0.2,-0.5 0.5,-0.5c0.3,0.1 0.5,0.3 0.5,0.5l0,0z" class="st1"/>
   <path id="svg_74" stroke-miterlimit="10" stroke-width="0.4262" stroke="#231F20" fill="#231F20" clip-rule="evenodd" fill-rule="evenodd" d="m27.8,40.7c0,0.3 -0.2,0.5 -0.5,0.5s-0.5,-0.2 -0.5,-0.5c0,-0.2 0.2,-0.5 0.5,-0.5c0.3,0.1 0.5,0.3 0.5,0.5l0,0z" class="st1"/>
   <path id="svg_75" stroke-miterlimit="10" stroke-width="0.4262" stroke="#231F20" fill="#231F20" clip-rule="evenodd" fill-rule="evenodd" d="m29.3,40.7c0,0.2 -0.2,0.5 -0.5,0.5s-0.5,-0.2 -0.5,-0.5s0.2,-0.5 0.5,-0.5c0.3,0 0.5,0.2 0.5,0.5l0,0z" class="st1"/>
   <path id="svg_76" stroke-miterlimit="10" stroke-width="0.4262" stroke="#231F20" fill="#231F20" clip-rule="evenodd" fill-rule="evenodd" d="m23.7,42.8c0,0.2 -0.2,0.5 -0.5,0.5s-0.5,-0.2 -0.5,-0.5s0.2,-0.5 0.5,-0.5s0.5,0.2 0.5,0.5l0,0z" class="st1"/>
   <path id="svg_77" stroke-miterlimit="10" stroke-width="0.4262" stroke="#231F20" fill="#231F20" clip-rule="evenodd" fill-rule="evenodd" d="m25.2,42.7c0,0.2 -0.2,0.5 -0.4,0.5c-0.3,0 -0.5,-0.2 -0.5,-0.5s0.2,-0.5 0.5,-0.5c0.2,0 0.4,0.2 0.4,0.5l0,0z" class="st1"/>
   <path id="svg_78" stroke-miterlimit="10" stroke-width="0.4262" stroke="#231F20" fill="#231F20" clip-rule="evenodd" fill-rule="evenodd" d="m26.7,42.6c0,0.3 -0.2,0.5 -0.5,0.5s-0.5,-0.2 -0.5,-0.5c0,-0.2 0.2,-0.5 0.5,-0.5s0.5,0.3 0.5,0.5l0,0z" class="st1"/>
   <path id="svg_79" stroke-miterlimit="10" stroke-width="0.4262" stroke="#231F20" fill="#231F20" clip-rule="evenodd" fill-rule="evenodd" d="m28.3,42.5c0,0.3 -0.2,0.5 -0.5,0.5c-0.2,0 -0.5,-0.2 -0.5,-0.5c0,-0.2 0.2,-0.5 0.5,-0.5c0.2,0.1 0.5,0.3 0.5,0.5l0,0z" class="st1"/>
   <path id="svg_80" stroke-miterlimit="10" stroke-width="0.4262" stroke="#231F20" fill="#231F20" clip-rule="evenodd" fill-rule="evenodd" d="m29.8,42.4c0,0.3 -0.2,0.5 -0.5,0.5c-0.2,0 -0.5,-0.2 -0.5,-0.5s0.2,-0.5 0.5,-0.5c0.3,0.1 0.5,0.3 0.5,0.5l0,0z" class="st1"/>
   <path id="svg_81" stroke-miterlimit="10" stroke-width="0.4262" stroke="#231F20" fill="#231F20" clip-rule="evenodd" fill-rule="evenodd" d="m23.5,44.6c0,0.2 -0.2,0.5 -0.5,0.5c-0.2,0 -0.5,-0.2 -0.5,-0.5c0,-0.2 0.2,-0.5 0.5,-0.5s0.5,0.2 0.5,0.5l0,0z" class="st1"/>
   <path id="svg_82" stroke-miterlimit="10" stroke-width="0.4262" stroke="#231F20" fill="#231F20" clip-rule="evenodd" fill-rule="evenodd" d="m25,44.5c0,0.2 -0.2,0.5 -0.5,0.5c-0.2,0 -0.5,-0.2 -0.5,-0.5s0.2,-0.5 0.5,-0.5s0.5,0.2 0.5,0.5l0,0z" class="st1"/>
   <path id="svg_83" stroke-miterlimit="10" stroke-width="0.4262" stroke="#231F20" fill="#231F20" clip-rule="evenodd" fill-rule="evenodd" d="m26.5,44.4c0,0.2 -0.2,0.5 -0.5,0.5s-0.5,-0.2 -0.5,-0.5s0.2,-0.5 0.5,-0.5c0.3,0.1 0.5,0.3 0.5,0.5l0,0z" class="st1"/>
   <path id="svg_84" stroke-miterlimit="10" stroke-width="0.4262" stroke="#231F20" fill="#231F20" clip-rule="evenodd" fill-rule="evenodd" d="m28,44.3c0,0.3 -0.2,0.5 -0.5,0.5c-0.2,0 -0.5,-0.2 -0.5,-0.5c0,-0.2 0.2,-0.5 0.5,-0.5c0.3,0.1 0.5,0.3 0.5,0.5l0,0z" class="st1"/>
   <path id="svg_85" stroke-miterlimit="10" stroke-width="0.4262" stroke="#231F20" fill="#231F20" clip-rule="evenodd" fill-rule="evenodd" d="m29.6,44.2c0,0.3 -0.2,0.5 -0.5,0.5c-0.2,0 -0.5,-0.2 -0.5,-0.5c0,-0.2 0.2,-0.5 0.5,-0.5c0.3,0.1 0.5,0.3 0.5,0.5l0,0z" class="st1"/>
  </g>
  <g id="svg_86" enable-background="new" class="st3">
   <g id="svg_87">
    <path id="svg_88" fill="#FFFFFF" d="m88,26.6c0,2.7 -0.4,5.2 -1.3,7.5s-2.1,4.2 -3.6,5.9c-1.5,1.6 -3.1,2.7 -4.9,3.5s-3.8,1.1 -5.8,1.1c-2,0 -4,-0.4 -5.8,-1.1c-1.8,-0.7 -3.4,-1.8 -4.8,-3.2c-1.6,-1.6 -2.8,-3.6 -3.7,-5.9s-1.4,-4.9 -1.4,-7.7c0,-2.6 0.4,-5 1.1,-7.2c0.7,-2.2 1.9,-4.1 3.4,-5.8c1.4,-1.6 3,-2.8 4.9,-3.7c1.9,-0.8 4,-1.3 6.2,-1.3c2.2,0 4.2,0.4 6,1.2s3.5,1.9 4.9,3.5c1.6,1.7 2.8,3.7 3.6,6c0.8,2.2 1.2,4.6 1.2,7.2zm-7.5,0.3c0,-1.7 -0.3,-3.4 -0.8,-5.1c-0.5,-1.7 -1.3,-3.1 -2.3,-4.2c-0.7,-0.7 -1.4,-1.3 -2.2,-1.7c-0.8,-0.4 -1.8,-0.6 -2.8,-0.6c-1,0 -2,0.2 -2.8,0.6s-1.7,1 -2.4,1.8c-0.9,1 -1.6,2.4 -2.1,3.9c-0.5,1.6 -0.8,3.2 -0.8,4.9c0,1.8 0.3,3.5 0.8,5.1c0.5,1.5 1.3,2.8 2.2,3.9c0.7,0.7 1.4,1.3 2.3,1.7c0.9,0.4 1.8,0.6 2.8,0.6c1,0 1.9,-0.2 2.8,-0.6s1.6,-1 2.3,-1.8c0.9,-1 1.6,-2.2 2.2,-3.8c0.5,-1.4 0.8,-3 0.8,-4.7z" class="st4"/>
    <path id="svg_89" fill="#FFFFFF" d="m119.3,33.6c0,1.9 -0.5,3.6 -1.5,5.1c-1,1.5 -2.5,2.6 -4.4,3.4c-1.5,0.6 -3.3,1.1 -5.3,1.3c-2,0.2 -4.2,0.4 -6.7,0.4c-1.3,0 -2.7,0 -4.1,-0.1s-2.5,-0.1 -3.2,-0.1c0,-2.8 0.1,-5.6 0.1,-8.5c0,-2.9 0,-6 0,-9.3c0,-3.6 0,-7.2 0,-10.6c0,-3.5 0,-5.3 0,-5.5c0.3,0 1.1,0 2.5,-0.1c1.4,-0.1 2.9,-0.1 4.5,-0.1c2.4,0 4.4,0.1 6,0.2c1.6,0.2 3,0.5 4.4,0.9c1.6,0.6 2.9,1.5 3.9,2.7s1.4,2.7 1.4,4.5c0,1.6 -0.4,3.1 -1.2,4.4s-1.9,2.3 -3.3,2.9l0,0.2c0.9,0.1 1.7,0.4 2.4,0.7c0.7,0.3 1.4,0.8 2,1.4c0.9,0.8 1.5,1.7 1.9,2.7c0.3,0.9 0.6,2.1 0.6,3.5zm-7.6,-1c0,-0.8 -0.1,-1.5 -0.4,-2c-0.3,-0.6 -0.6,-1.1 -1.1,-1.6c-0.4,-0.4 -0.9,-0.7 -1.6,-1s-1.4,-0.4 -2.2,-0.4c-0.6,0 -1.1,0 -1.5,0c-0.4,0 -0.6,0 -0.7,0l-0.6,-3.2c0.8,0 1.5,-0.2 2.2,-0.4c0.7,-0.2 1.3,-0.5 1.7,-0.9c0.5,-0.4 0.9,-0.9 1.2,-1.6s0.5,-1.4 0.5,-2.3c0,-0.8 -0.2,-1.5 -0.5,-2.1s-0.8,-1.2 -1.4,-1.5c-0.5,-0.3 -1.1,-0.5 -1.8,-0.6c-0.7,-0.1 -1.4,-0.2 -2.2,-0.2c-0.4,0 -0.8,0 -1.2,0c-0.4,0 -0.7,0 -0.9,0c0,1.7 0,3.6 -0.1,5.7c0,2.1 0,3.9 0,5.5c0,1.7 0,4 0,6.9s0,4.5 0,4.7c0.2,0 0.5,0 0.9,0s0.9,0 1.4,0c1.2,0 2.3,-0.1 3.3,-0.2c1.1,-0.1 2,-0.4 2.7,-0.9c0.7,-0.4 1.2,-1 1.6,-1.7c0.5,-0.4 0.7,-1.2 0.7,-2.2z" class="st4"/>
    <path id="svg_90" fill="#FFFFFF" d="m132.5,43.6l-7.3,0c0,-1.4 0,-3.5 0.1,-6.2c0,-2.7 0,-6.4 0,-11.1c0,-2 0,-4.4 0,-7.5c0,-3 0,-6.1 -0.1,-9.2l7.3,0c0,2.3 0,5 -0.1,8c0,3 0,5.7 0,8.1c0,4.8 0,8.5 0,11.1s0.1,4.9 0.1,6.8z" class="st4"/>
   </g>
  </g>
 </g>
</svg>